<?xml version="1.0" standalone="no"?>
<!DOCTYPE svg PUBLIC "-//W3C//DTD SVG 20010904//EN"
 "http://www.w3.org/TR/2001/REC-SVG-20010904/DTD/svg10.dtd">
<svg version="1.0" xmlns="http://www.w3.org/2000/svg"
 width="880.000000pt" height="600.000000pt" viewBox="0 0 880.000000 600.000000"
 preserveAspectRatio="xMidYMid meet">

<g transform="translate(0.000000,600.000000) scale(0.100000,-0.100000)"
fill="#000000" stroke="none">
<path d="M5504 5746 c-153 -48 -388 -245 -508 -426 -24 -36 -51 -86 -61 -113
-31 -82 -11 -192 86 -495 48 -146 52 -167 59 -297 8 -152 14 -177 54 -214 32
-30 121 -40 193 -22 82 21 193 82 254 141 58 55 59 56 59 110 0 49 -5 77 -25
168 -5 21 -3 20 28 -10 30 -30 33 -36 25 -68 -12 -55 1 -117 38 -172 19 -27
34 -54 34 -59 0 -21 -112 -230 -170 -319 -78 -118 -195 -235 -273 -273 -38
-18 -86 -31 -140 -37 -48 -6 -342 -7 -717 -3 -649 6 -842 0 -1080 -33 -235
-32 -402 -94 -486 -181 -43 -43 -116 -146 -127 -176 -7 -20 -169 97 -240 172
-79 84 -113 145 -207 366 -92 217 -130 292 -193 383 -90 130 -247 252 -326
252 -67 0 -115 -48 -115 -114 0 -47 25 -79 87 -115 119 -68 193 -172 307 -431
157 -360 221 -461 364 -580 54 -44 209 -147 244 -162 12 -5 -4 -415 -19 -473
-18 -75 -48 -137 -153 -323 -213 -376 -298 -600 -326 -862 -15 -138 0 -310 65
-720 13 -85 27 -199 31 -254 7 -118 16 -131 101 -142 163 -23 356 -1 415 46
76 59 18 197 -107 251 l-54 24 -17 70 c-9 39 -18 116 -21 171 -7 126 4 152
113 281 93 108 214 236 220 231 2 -2 42 -195 90 -429 47 -233 91 -435 97 -448
17 -35 63 -44 202 -39 171 7 240 39 237 113 -3 73 -41 116 -134 150 l-63 23
-12 153 c-7 85 -13 197 -15 251 -4 117 3 128 118 207 43 30 124 100 179 155
191 192 327 440 396 724 l23 94 95 -9 c53 -4 242 -8 421 -7 267 1 357 5 505
22 99 12 185 22 191 22 7 0 14 -39 18 -102 3 -57 13 -200 21 -318 35 -502 47
-747 55 -1122 9 -432 11 -445 65 -460 17 -5 82 -11 145 -15 222 -12 350 34
350 124 0 99 -81 176 -218 207 l-57 13 -3 64 c-5 101 33 479 48 479 9 0 38
-267 44 -404 3 -71 10 -114 18 -122 37 -37 345 -44 438 -10 68 25 90 51 90
105 0 26 -8 62 -18 81 -22 42 -97 95 -161 114 l-46 13 -6 174 c-26 695 -31
977 -20 1049 7 41 39 186 73 322 l61 248 58 67 c161 187 177 295 113 796 -29
224 -36 319 -37 464 -2 175 -1 183 21 210 71 89 77 103 77 185 0 72 2 79 29
105 l28 28 -6 -30 c-36 -185 -34 -201 33 -266 122 -117 326 -183 419 -135 53
27 65 64 73 226 7 134 11 156 54 290 72 224 96 328 98 410 2 67 -2 83 -31 143
-82 167 -318 396 -488 474 -72 33 -132 35 -171 7 -28 -21 -88 -93 -95 -115 -3
-8 -29 -5 -93 11 -121 31 -286 31 -399 1 -44 -12 -82 -21 -86 -21 -4 0 -24 25
-44 55 -25 36 -52 61 -80 75 -48 23 -56 23 -112 6z m120 -56 c19 -17 43 -46
55 -65 l20 -34 -52 -29 c-122 -69 -208 -182 -227 -298 -13 -77 7 -176 68 -349
27 -78 55 -165 61 -195 59 -269 62 -289 47 -323 -18 -44 -74 -89 -168 -137
-143 -72 -241 -76 -284 -13 -18 26 -22 52 -27 166 -6 115 -12 152 -42 249
-121 390 -134 466 -96 552 74 169 353 433 519 492 58 21 88 17 126 -16z m970
-10 c171 -87 409 -336 462 -483 28 -76 6 -190 -101 -535 -27 -87 -35 -131 -35
-190 -1 -135 -15 -212 -44 -241 -23 -23 -34 -26 -92 -25 -56 1 -77 7 -157 47
-51 25 -114 66 -140 90 -43 40 -47 47 -47 90 0 74 54 298 113 472 90 261 96
341 37 461 -35 71 -127 163 -196 197 -24 11 -44 25 -44 30 0 15 59 95 83 112
30 22 85 14 161 -25z m-364 -90 c149 -42 279 -139 330 -245 29 -60 38 -156 21
-232 -15 -63 -26 -62 -34 4 -13 115 -76 221 -142 243 -104 34 -219 -76 -334
-321 l-48 -103 -61 125 c-92 187 -166 274 -254 301 -32 9 -43 8 -85 -13 -40
-20 -53 -34 -80 -86 -19 -37 -36 -92 -44 -138 -6 -42 -15 -72 -20 -68 -4 4
-13 42 -20 85 -16 99 -2 166 51 245 75 113 227 198 405 227 65 10 241 -3 315
-24z m-489 -283 c55 -37 124 -132 184 -254 l57 -115 -33 -29 c-19 -15 -37 -28
-41 -29 -23 -1 -192 -221 -211 -275 -14 -37 -98 107 -148 252 -33 95 -35 127
-14 247 20 111 39 159 81 196 42 36 78 38 125 7z m701 -19 c37 -43 65 -133 78
-244 9 -87 9 -94 -19 -175 -16 -46 -38 -106 -50 -132 -24 -55 -78 -137 -90
-137 -5 0 -26 30 -47 67 -24 41 -79 109 -142 172 l-104 105 29 61 c133 284
258 387 345 283z m-353 -420 c24 -17 74 -68 112 -112 197 -231 183 -403 -37
-486 -67 -25 -196 -27 -271 -5 -59 18 -121 60 -158 109 -77 101 -20 252 164
438 101 102 120 108 190 56z m-4236 -490 c79 -43 175 -132 232 -218 49 -73
115 -209 216 -440 101 -232 187 -340 355 -446 l70 -45 -20 -74 c-12 -41 -26
-75 -33 -75 -39 0 -230 138 -309 223 -88 94 -139 182 -224 382 -160 373 -224
471 -358 547 -60 34 -82 61 -82 98 0 29 15 52 45 68 30 17 42 15 108 -20z
m3924 -245 c0 -107 10 -202 42 -421 48 -326 58 -484 42 -631 -15 -135 -42
-241 -98 -376 -84 -203 -115 -393 -79 -479 10 -24 11 -46 4 -87 -5 -30 -13
-216 -18 -414 -7 -312 -12 -379 -33 -505 -30 -173 -47 -345 -50 -495 l-2 -109
55 -8 c69 -10 172 -60 195 -94 68 -104 21 -158 -150 -173 -90 -8 -274 4 -289
19 -6 6 -13 147 -17 353 -8 358 -23 661 -64 1262 -14 198 -25 367 -25 376 0
14 -8 14 -79 3 -271 -43 -744 -65 -961 -45 -407 39 -563 21 -703 -79 -68 -49
-112 -115 -165 -248 -63 -156 -82 -181 -457 -577 -312 -330 -365 -400 -379
-495 -7 -50 5 -165 30 -282 16 -73 18 -76 48 -82 47 -9 122 -60 141 -96 9 -17
15 -48 13 -68 -3 -33 -8 -40 -50 -60 -36 -18 -71 -25 -146 -29 -119 -7 -247 4
-266 22 -8 8 -15 51 -19 117 -3 56 -15 157 -26 223 -42 245 -71 497 -71 608 0
287 89 549 335 982 151 265 165 310 165 526 0 315 50 487 185 636 71 80 190
133 375 166 277 50 502 59 1250 51 696 -7 708 -7 815 50 70 36 182 143 247
236 58 81 148 238 178 308 12 28 23 52 24 52 1 0 2 -62 3 -137z m460 -50 c1
-116 8 -232 22 -333 11 -85 27 -204 35 -265 24 -186 28 -267 17 -350 -21 -149
-68 -219 -301 -450 -166 -164 -206 -213 -262 -319 -28 -54 -38 -67 -44 -53
-11 30 24 204 62 300 123 316 138 395 131 677 -5 155 -13 243 -42 425 -35 230
-55 498 -38 522 7 9 19 8 53 -5 68 -25 249 -23 315 5 28 12 50 21 51 22 0 1 1
-79 1 -176z m-147 -1385 c0 -2 -22 -92 -50 -201 -75 -302 -84 -376 -71 -625 6
-114 14 -355 17 -537 4 -181 9 -346 13 -365 6 -30 12 -35 44 -42 54 -11 132
-53 156 -84 25 -31 38 -91 24 -113 -31 -51 -186 -78 -352 -62 -58 6 -108 16
-112 23 -4 6 -10 63 -13 127 -3 64 -17 214 -32 333 -14 120 -22 222 -19 228 3
6 10 178 15 383 10 396 17 465 65 573 13 29 38 75 56 101 52 76 259 284 259
261z m-2100 -420 c0 -13 -11 -64 -24 -113 -91 -337 -285 -628 -546 -814 -68
-48 -102 -80 -119 -111 l-24 -44 12 -185 c6 -102 14 -220 18 -262 l6 -76 51
-12 c67 -15 111 -42 131 -81 22 -43 16 -71 -21 -92 -44 -26 -183 -42 -269 -31
l-70 8 -12 50 c-29 114 -174 841 -171 856 2 9 71 90 155 180 221 238 255 284
303 406 62 162 113 229 215 281 71 35 183 57 313 61 48 1 52 -1 52 -21z"/>
<path d="M5764 5122 c-53 -35 -40 -180 17 -195 49 -13 81 29 81 104 0 62 -22
99 -60 99 -15 0 -32 -4 -38 -8z m66 -88 c0 -26 -20 -74 -30 -74 -31 0 -45 95
-19 126 12 15 15 14 31 -6 10 -12 18 -33 18 -46z"/>
<path d="M6206 5108 c-49 -79 -8 -200 62 -181 51 13 71 126 31 177 -26 34 -73
36 -93 4z m74 -78 c0 -50 -21 -83 -41 -63 -20 20 -22 81 -5 108 25 38 46 17
46 -45z"/>
<path d="M5923 4685 c-86 -37 -59 -150 56 -228 22 -15 23 -18 11 -47 -31 -75
-107 -91 -181 -39 -43 31 -43 31 -19 4 75 -82 162 -71 205 25 10 22 23 39 29
37 10 -3 24 6 86 61 71 62 80 139 21 179 -28 19 -47 23 -105 23 -39 -1 -86 -7
-103 -15z m188 -36 c26 -14 32 -44 15 -78 -18 -33 -84 -91 -105 -91 -7 0 -36
22 -62 49 -72 71 -67 115 16 135 27 6 114 -3 136 -15z"/>
<path d="M6040 4413 c0 -17 40 -67 62 -79 13 -8 34 -13 49 -14 25 0 126 57
116 66 -2 3 -22 -6 -42 -21 -58 -39 -104 -35 -149 15 -20 22 -36 37 -36 33z"/>
</g>
</svg>
