<svg id="Capa_1" data-name="Capa 1" xmlns="http://www.w3.org/2000/svg" viewBox="0 0 71.26 53.72"><defs><style>.cls-1{fill:none;stroke:#1f140f;stroke-miterlimit:10;stroke-width:3px;}</style></defs><path class="cls-1" d="M57,1.5h4.27c4.71,0,8.53,3,8.53,6.76v37.2c0,3.73-3.82,6.76-8.53,6.76H10c-4.71,0-8.53-3-8.53-6.76V8.26C1.5,4.53,5.32,1.5,10,1.5H14.3m-1.86,0H59.22"/><rect class="cls-1" x="15.42" y="9.52" width="17.41" height="16.57" rx="8.29"/><path class="cls-1" d="M39.63,44.19h0A14.76,14.76,0,0,0,24.87,29.43H23.38A14.76,14.76,0,0,0,8.62,44.19h0"/><line class="cls-1" x1="42.91" y1="14.66" x2="63.81" y2="14.66"/><line class="cls-1" x1="63.81" y1="21.47" x2="42.91" y2="21.47"/></svg>