<svg id="Capa_1" data-name="Capa 1" xmlns="http://www.w3.org/2000/svg" viewBox="0 0 26.69 26.69"><defs><style>.cls-1{fill:#010001;}</style></defs><path class="cls-1" d="M5.84,0a.83.83,0,0,1,.83.83v.84H20V.83A.83.83,0,0,1,20.85,0a.84.84,0,0,1,.84.83v.84h1.67A3.33,3.33,0,0,1,26.69,5V23.36a3.33,3.33,0,0,1-3.33,3.33h-20A3.33,3.33,0,0,1,0,23.36V5A3.33,3.33,0,0,1,3.34,1.67H5V.83A.84.84,0,0,1,5.84,0ZM1.67,6.67V23.36A1.66,1.66,0,0,0,3.34,25h20A1.66,1.66,0,0,0,25,23.36V6.67Z"/><path class="cls-1" d="M6.56,15.21l6.33,7.29a.61.61,0,0,0,.86.07l.06-.07,6.33-7.29A.15.15,0,0,0,20,15H18.48a.31.31,0,0,0-.23.1l-4.18,4.81V9.13A.15.15,0,0,0,13.92,9H12.77a.15.15,0,0,0-.15.15V19.87L8.45,15.06a.33.33,0,0,0-.23-.1H6.67A.15.15,0,0,0,6.56,15.21Z"/></svg>