<svg id="Capa_1" data-name="Capa 1" xmlns="http://www.w3.org/2000/svg" viewBox="0 0 27.96 27.96"><defs><style>.cls-1{fill:#010001;}</style></defs><path class="cls-1" d="M6.12,0A.87.87,0,0,1,7,.87v.88H21V.87a.87.87,0,1,1,1.74,0v.88h1.75A3.5,3.5,0,0,1,28,5.24V24.46a3.5,3.5,0,0,1-3.5,3.5h-21A3.5,3.5,0,0,1,0,24.46V5.24A3.49,3.49,0,0,1,3.49,1.75H5.24V.87A.87.87,0,0,1,6.12,0ZM1.75,7V24.46a1.74,1.74,0,0,0,1.74,1.75h21a1.75,1.75,0,0,0,1.75-1.75V7Z"/><path class="cls-1" d="M21.09,17.27,14.46,9.63a.64.64,0,0,0-.9-.07.46.46,0,0,0-.07.07L6.87,17.27a.16.16,0,0,0,0,.22.15.15,0,0,0,.11,0H8.6a.34.34,0,0,0,.25-.11l4.37-5V23.63a.16.16,0,0,0,.16.16h1.2a.16.16,0,0,0,.16-.16V12.38l4.37,5a.32.32,0,0,0,.24.11H21A.16.16,0,0,0,21.09,17.27Z"/></svg>