<svg id="Capa_1" data-name="Capa 1" xmlns="http://www.w3.org/2000/svg" viewBox="0 0 34.33 34.33"><defs><style>.cls-1{fill:none;}.cls-2{fill:#010001;}</style></defs><path class="cls-1" d="M0,0H34.33V34.33H0Z"/><path class="cls-2" d="M17.16,8.58H8.58v8.58h8.58ZM14.3,14.3H11.44V11.44H14.3Z"/><path class="cls-2" d="M25.74,27.17v-10m0-2.86v-10a1.43,1.43,0,0,0-1.43-1.43h-20A1.43,1.43,0,0,0,2.86,4.29V27.17a4.3,4.3,0,0,0,4.29,4.3H25.74M22.88,28.6H7.15a1.43,1.43,0,0,1-1.43-1.43V5.72H22.88Z"/><rect class="cls-2" x="8.58" y="22.88" width="11.44" height="2.86"/><rect class="cls-2" x="8.58" y="18.59" width="11.44" height="2.86"/></svg>