<svg id="Capa_1" data-name="Capa 1" xmlns="http://www.w3.org/2000/svg" viewBox="0 0 83.82 83.82"><defs><style>.cls-1{fill:#fafafa;}.cls-1,.cls-2{stroke:#fafafa;stroke-miterlimit:10;}.cls-2{fill:none;stroke-width:4px;}</style></defs><path class="cls-1" d="M68.59,30.09a5.29,5.29,0,0,0-3-2.88,5.58,5.58,0,0,0-1.94-.34c-2.84,0-5.73,2.19-7.19,5.45-1.81,4-.76,8,2.43,9.22a6.1,6.1,0,0,0,2,.36,8.61,8.61,0,0,0,7.33-5A8.2,8.2,0,0,0,68.59,30.09ZM27.4,32.31C26,29,23.05,26.85,20.21,26.85a5.74,5.74,0,0,0-1.94.34,5.37,5.37,0,0,0-3,2.89,8,8,0,0,0,.35,6.8,8.63,8.63,0,0,0,7.33,5,5.59,5.59,0,0,0,2-.37C28.16,40.32,29.21,36.36,27.4,32.31Zm6.32-.45a7,7,0,0,0,.79,0,6.29,6.29,0,0,0,4-1.88c1.76-1.78,2.24-4.57,1.87-7.45-.56-4.41-3.38-7.73-7.18-7.87,0,0-.54,0-.81,0A6.82,6.82,0,0,0,28,16.75a8.52,8.52,0,0,0-2.25,7.05C26.33,28.18,29.81,31.72,33.72,31.86Zm8.19,5.85c-9.08,0-18.18,12.73-18.18,23.11a8.17,8.17,0,0,0,3.08,6.61,9.12,9.12,0,0,0,6,1.75,7.12,7.12,0,0,0,3.68-.8A11,11,0,0,1,41.69,67h.46a11.1,11.1,0,0,1,5.23,1.36,7.33,7.33,0,0,0,3.68.8,9.08,9.08,0,0,0,6-1.75,8.2,8.2,0,0,0,3.08-6.61C60.1,50.42,51,37.71,41.91,37.71Zm7.42-5.89a7,7,0,0,0,.79,0c3.91-.15,7.41-3.67,8-8.06a8.54,8.54,0,0,0-2.24-7.06,6.68,6.68,0,0,0-4.34-2c-.27,0-.88,0-.88,0-3.79.15-6.6,3.42-7.18,7.85-.37,2.88.12,5.68,1.87,7.45A6.41,6.41,0,0,0,49.33,31.82Z"/><circle class="cls-2" cx="41.91" cy="41.91" r="39.91"/></svg>